Coordinates
version=1
nRows=5
nColumns=40
inDegrees=yes

Units are S.I. units (second, meters, Newtons, ...)
Angles are in degrees.

endheader
time	pelvis_tilt	pelvis_list	pelvis_rotation	pelvis_tx	pelvis_ty	pelvis_tz	hip_flexion_r	hip_adduction_r	hip_rotation_r	knee_angle_r	knee_angle_r_beta	ankle_angle_r	subtalar_angle_r	mtp_angle_r	hip_flexion_l	hip_adduction_l	hip_rotation_l	knee_angle_l	knee_angle_l_beta	ankle_angle_l	subtalar_angle_l	mtp_angle_l	lumbar_extension	lumbar_bending	lumbar_rotation	arm_flex_r	arm_add_r	arm_rot_r	elbow_flex_r	pro_sup_r	wrist_flex_r	wrist_dev_r	arm_flex_l	arm_add_l	arm_rot_l	elbow_flex_l	pro_sup_l	wrist_flex_l	wrist_dev_l
     52.96000000	     -4.29745952	     -4.62694340	     -0.79593962	      1.07741175	      0.93369560	      0.43523024	     37.11575955	     -6.14849136	     -6.25149938	     64.83506669	     64.83506669	      2.92238323	    -15.99432061	      2.02705668	     12.00956185	     -6.16762587	    -10.32752291	     19.81219603	     19.81219603	     13.47545073	    -10.90202629	     -2.41704348	    -11.18765418	      6.47732752	      2.54808567	      4.37335794	    -12.67615734	     -8.95845340	     48.24600257	     46.23939421	      0.00000000	      0.00000000	     23.16615472	    -14.54785544	      2.08847914	     44.95164542	     46.57278027	      0.00000000	      0.00000000
     52.97085714	     -4.20628314	     -4.72187685	     -1.11153906	      1.07709204	      0.93379005	      0.43549270	     37.53500980	     -5.87083344	     -6.21930822	     62.48342287	     62.48342287	      2.74488975	    -15.75495235	      2.17338695	     11.03385679	     -6.24060621	    -10.53386934	     19.39230727	     19.39230727	     13.83624217	    -10.92466615	     -2.42495050	    -11.38777455	      6.70269121	      3.13865950	      2.90592961	    -12.92038326	     -9.27824321	     44.54891720	     46.37250977	      0.00000000	      0.00000000	     24.57817184	    -14.67940337	      1.75654834	     46.80697365	     46.63450717	      0.00000000	      0.00000000
     52.98171429	     -4.23413121	     -4.70077685	     -1.40778026	      1.07678421	      0.93357366	      0.43581038	     37.90300936	     -5.73902354	     -6.28733866	     59.78820062	     59.78820062	      2.36673801	    -15.51970414	      1.49362911	     10.23075501	     -6.19673585	    -10.75399521	     19.04904337	     19.04904337	     14.15722290	    -10.95724090	     -2.56278092	    -11.29717574	      6.76584488	      2.10452551	      4.40389347	    -12.11477082	    -11.22965112	     35.74424285	     46.76813300	      0.00000000	      0.00000000	     24.50137626	    -15.95015072	      0.76317852	     50.10003856	     46.75148257	      0.00000000	      0.00000000
     52.99257143	     -4.20197666	     -4.79003797	     -1.68672102	      1.07661556	      0.93337537	      0.43618082	     38.01639373	     -5.49379280	     -6.52466519	     56.80671790	     56.80671790	      2.29179852	    -15.02479656	      1.72278040	      9.29512058	     -6.25185171	    -10.93896742	     18.59758113	     18.59758113	     14.52696415	    -10.94622875	     -2.57932056	    -11.42404480	      7.02431199	      2.59489467	      2.51943670	    -12.47699028	    -11.42587056	     33.92885009	     46.83175173	      0.00000000	      0.00000000	     25.81066659	    -16.01011640	      0.35073037	     51.65310485	     46.81727673	      0.00000000	      0.00000000
     53.00342857	     -4.18076683	     -4.72230256	     -2.00632854	      1.07654063	      0.93299249	      0.43665797	     37.97643235	     -5.35784990	     -6.72189595	     53.50509655	     53.50509655	      1.72616478	    -14.62678507	      0.36790387	      8.36036354	     -6.15206500	    -11.26280245	     18.14587826	     18.14587826	     14.80044834	    -10.87053022	     -2.86706245	    -11.52010099	      7.03280528	      2.16568109	      3.16353344	    -12.17647389	    -13.58925856	     27.14114528	     47.21237259	      0.00000000	      0.00000000	     25.78525732	    -16.79706686	     -1.16048262	     55.53927489	     46.98977676	      0.00000000	      0.00000000
